# xmcd
#
# Track frame offsets:
#  150
#  27092
#  51369
#  78793
#
# Disc length: 1266 seconds
#
# Revision: 2
# Processed by: cddbd v1.4PL0 Copyright (c) Steve Scherf et al.
# Submitted via: AltoMP3_Maker 3.0
#
DISCID=2404f004
DTITLE=張惠妹 - 妹力四射-1998張惠妹演唱會英文版
DYEAR=1900
DGENRE=
TTITLE0=I don't want to talk about it
TTITLE1=What's up
TTITLE2=The power of love
TTITLE3=Walking by myself
EXTD=
EXTT0=
EXTT1=
EXTT2=
EXTT3=
PLAYORDER=
